<?xml version="1.0" encoding="UTF-8"?>
<svg id="_图层_1" data-name="图层 1" xmlns="http://www.w3.org/2000/svg" viewBox="0 0 1367.09 769.74">
  <defs>
    <style>
      .cls-1 {
        fill: none;
        stroke: #0f172a;
        stroke-miterlimit: 10;
        stroke-width: 2px;
      }
    </style>
  </defs>
  <path class="cls-1" d="M1366.49.87c-226.86,128.3-453.86,256.3-681,384C457.33,513.15,229,641.15.49,768.87"/>
  <path class="cls-1" d="M1364.06,55.73c-213.55,116.98-430.9,231.14-644.93,338.36-214.41,107.41-421.15,210.54-621.07,319.93"/>
  <path class="cls-1" d="M1361.63,110.58c-200.25,105.67-408.06,206.07-608.86,292.71-200.81,86.65-385.82,164.8-557.14,255.86"/>
  <path class="cls-1" d="M1359.2,165.44c-186.94,94.36-385.4,181.1-572.79,247.07-187.42,65.98-350.48,119.07-493.21,191.79"/>
  <path class="cls-1" d="M1356.77,220.3c-173.63,83.05-363.01,156.19-536.71,201.43-174.32,45.4-315.15,73.33-429.29,127.71"/>
  <path class="cls-1" d="M1354.35,275.16c-160.32,71.74-340.99,131.26-500.64,155.79s-279.81,27.6-365.36,63.64"/>
  <path class="cls-1" d="M1351.92,330.01c-147.02,60.43-319.44,106.14-464.57,110.14-149.48,4.13-244.47-18.14-301.43-.43"/>
  <path class="cls-1" d="M1349.49,384.87c-133.71,49.12-298.4,80.53-428.5,64.5-137.89-16.99-209.14-63.88-237.5-64.5"/>
  <path class="cls-1" d="M1347.06,439.73c-120.4,37.81-277.69,54.08-392.43,18.86-126.71-38.9-173.8-109.61-173.57-128.57"/>
  <path class="cls-1" d="M1344.63,494.58c-107.09,26.5-256.88,26.58-356.36-26.79-115.42-61.92-138.47-155.35-109.64-192.64"/>
  <path class="cls-1" d="M1342.2,549.44c-93.79,15.19-235.39-1.78-320.29-72.43-103.33-85.98-103.13-201.09-45.71-256.71"/>
  <path class="cls-1" d="M1339.77,604.3c-80.48,3.88-212.89-30.42-284.21-118.07-89.94-110.53-67.8-246.82,18.21-320.79"/>
  <path class="cls-1" d="M1337.35,659.16c-67.17-7.43-189.48-58.75-248.14-163.71-75.37-134.85-32.46-292.56,82.14-384.86"/>
  <path class="cls-1" d="M1334.92,714.01c-53.86-18.75-165.51-86.49-212.07-209.36-60.09-158.55,2.87-338.3,146.07-448.93"/>
  <path class="cls-1" d="M1366.49.87c-171.79,128.97-254.55,331.42-210,513,34.68,141.36,135.44,224.94,176,255"/>
</svg>